<?xml version="1.0" encoding="utf-8"?>
<!-- Generator: Adobe Illustrator 24.3.0, SVG Export Plug-In . SVG Version: 6.00 Build 0)  -->
<svg version="1.1" id="Layer_1" xmlns="http://www.w3.org/2000/svg" xmlns:xlink="http://www.w3.org/1999/xlink" x="0px" y="0px"
	 viewBox="0 0 371.7 371.3" style="enable-background:new 0 0 371.7 371.3;" xml:space="preserve">
<style type="text/css">
	.st0{fill:#D6A75E;}
</style>
<path class="st0" d="M368.4,116.3V90.6c0.3-8.2,1.1-16.4,2.5-24.5l0.8-4.8l-4.8,0.8c-10.1,1.7-20.4,2.6-30.7,2.6l0,0h-29v-29
	c0-10.2,0.9-20.5,2.6-30.6l0.8-4.8L305.7,1c-7.4,1.3-14.9,2.1-22.5,2.4h-21.7c-10.2,0-20.6-0.9-30.7-2.6L226,0l0.8,4.8
	c1.7,10.2,2.6,20.4,2.6,30.7V49c0,10.2-0.9,20.5-2.6,30.7l-0.8,4.8l4.8-0.8c10.1-1.7,20.4-2.6,30.7-2.6h32.9L271,90.6
	c-1.4,0.6-2.6,1.4-3.7,2.5l-2.5,2.5l-1.9-1.9l-2-2c-1.1-1.1-2.8-1.1-3.9,0l-3.2,3.2c-2.1,2.1-4.3,4-6.7,5.6l-1.2,0.8l1.2,0.8
	c2.2,1.5,4.1,3.2,6,5l-23.8,23.8L208,109.6l0.4,0.1c-7.3-7.3-13.9-15.1-19.8-23.5l-2.8-4l-2.8,4c-5.9,8.4-12.6,16.2-19.8,23.5
	l-21.1,21.1L130.3,119c-2-2-4.8-3.2-7.7-3.2H110l2.8-2.8l5.2-5.2c2.1-2.1,4.3-4,6.7-5.6l1.2-0.8l-1.2-0.8c-2.4-1.7-4.6-3.5-6.7-5.6
	l-3.2-3.2c-1.1-1.1-2.8-1.1-3.9,0l-3.9,3.9L92.6,81.3h17.5c10.2,0,20.6,0.9,30.7,2.6l4.8,0.8l-0.8-4.8c-1.7-10.2-2.6-20.4-2.6-30.7
	V35.6c0-10.3,0.9-20.6,2.6-30.7l0.8-4.8l-4.8,0.8c-10.1,1.7-20.4,2.6-30.7,2.6H88.4c-7.5-0.4-15.1-1.2-22.5-2.4l-4.8-0.8l0.8,4.8
	c1.7,10.1,2.6,20.4,2.6,30.7l0,0v28.9h-29l0,0c-10.2,0-20.6-0.9-30.7-2.6L0,61.3l0.8,4.8C2.2,74.3,3,82.5,3.3,90.7v25.6
	c-0.3,8.2-1.1,16.4-2.5,24.6L0,145.7l4.8-0.8c10.1-1.7,20.4-2.6,30.7-2.6h21.7c7.5,0.4,15,1.2,22.5,2.4l4.8,0.8l-1.5-8.9
	c-1.4-8.2-1.6-16.6-1.9-24.9c-0.1-1.2-0.3-2.4-0.7-3.5L70.1,82l25.2,25.2l-3.9,3.9c-1.1,1.1-1.1,2.8,0,3.9l3.2,3.2
	c2,2,3.9,4.3,5.6,6.6l0.8,1.2l0.8-1.2c1.5-2.2,3.2-4.1,5-6l23.6,23.6l-20.1,20.2c-7.3,7.3-15.1,13.9-23.5,19.8l-4,2.8l4,2.8
	c6.1,4.3,12,9.1,17.6,14.2l26.8,26.8l-16.5,16.5l-7.3,7.3l-63,62.9l0,0l-24,24c-1.1,1.1-1.1,2.8,0,3.9l0.1,0.1c3,3,5.8,6.3,8.4,9.9
	l1.2,1.7l1.2-1.7c2.5-3.5,5.3-6.9,8.4-9.9l4.5-4.5l22.4,22.4c2.5,2.5,4.8,5.1,6.8,8l0.9,1.4l0.9-1.4c2-2.8,4.3-5.5,6.7-7.9l0.1-0.1
	l0,0c1.1-1.1,1.1-2.8,0-3.9l-17.4-17.4H83l6.8-6.7v-18.4l17.4,17.4c1.1,1.1,2.8,1.1,3.9,0l0,0l0.1-0.1c2.5-2.5,5.1-4.7,7.9-6.7
	l1.4-0.9l-1.4-0.9c-2.8-2-5.5-4.3-8-6.7L88.7,295l0,0l-5.8-5.8h11.6l36.6-36.6c2-2,3.2-4.8,3.2-7.7v-12.6l28.8,28.8
	c7.3,7.3,13.9,15.1,19.8,23.5l2.8,4l2.8-4c5.9-8.4,12.6-16.2,19.8-23.5l8.5-8.5c2-2,3.2-4.8,3.2-7.7v-12.6l25.2,25.2l24.5,24.5
	l13.1,13.1l-22.4,22.4c-2.5,2.5-5.1,4.8-8,6.8l-1.4,0.9l1.4,0.9c2.8,2,5.5,4.3,7.9,6.7l0.1,0.1c1.1,1.1,2.8,1.1,3.9,0l17.4-17.4
	v18.4l6.7,6.7h18.4L289.4,358c-1.1,1.1-1.1,2.8,0,3.9l0.1,0.1c2.5,2.5,4.7,5.1,6.7,7.9l0.9,1.4l0.9-1.4c2-2.9,4.3-5.6,6.8-8
	l22.4-22.4l5.8-5.8v11.7c2.5,2.7,4.9,5.5,7,8.5l1.2,1.7l1.2-1.7c2.5-3.5,5.3-6.9,8.4-9.9l0.1-0.1c1.1-1.1,1.1-2.8,0-3.9l-94-94.3
	L240.2,229l20.9-20.9c7.3-7.3,15.1-13.9,23.5-19.8l4-2.8l-4-2.8c-8.4-5.9-16.2-12.6-23.5-19.8l-20.2-20.2l12-12c2-2,3.2-4.8,3.2-7.7
	v-12.7l7.9,7.9c2.1,2.1,4,4.3,5.6,6.7l0.8,1.2l0.8-1.2c1.7-2.4,3.5-4.6,5.6-6.7l3.2-3.2c1.1-1.1,1.1-2.8,0-3.9l-3.9-3.9l14.4-14.4
	V110c0,10.2-0.9,20.5-2.6,30.7l-0.8,4.8l4.8-0.8c7.4-1.3,14.8-2.1,22.4-2.4H336c10.2,0,20.6,0.9,30.7,2.6l4.8,0.8l-0.8-4.8
	C369.5,132.8,368.6,124.6,368.4,116.3 M290.8,63.3c0,0.7-0.6,1.4-1.4,1.4h-42.1c-0.7,0-1.4-0.6-1.4-1.4v-42c0-0.7,0.6-1.4,1.4-1.4
	h42.1c0.7,0,1.4,0.6,1.4,1.4V63.3L290.8,63.3z M63,125.9H20.9c-0.7,0-1.4-0.6-1.4-1.4V82.4c0-0.7,0.6-1.4,1.4-1.4H63
	c0.7,0,1.4,0.6,1.4,1.4v42.1C64.4,125.3,63.7,125.9,63,125.9 M80.8,63.3v-42c0-0.7,0.6-1.4,1.4-1.4h42.1c0.7,0,1.4,0.6,1.4,1.4v42.1
	c0,0.7-0.6,1.4-1.4,1.4H82.2C81.4,64.7,80.8,64.1,80.8,63.3 M56.7,326.8H46.1l30-19.4v19.4H56.7L56.7,326.8z M295.5,326.8v-19.4
	v-10.6l19.4,30H295.5L295.5,326.8z M184.7,111.4c0.5-0.5,1.4-0.5,1.9,0l31.2,31.2l-32,32l-32.1-32.1L184.7,111.4z M111.7,186.3
	c-0.5-0.5-0.5-1.4,0-1.9l18.6-18.6c2-2,3.2-4.8,3.2-7.7v-12.6l40.7,40.7l-31.4,31.4L111.7,186.3z M186.6,259.3
	c-0.5,0.5-1.4,0.5-1.9,0l-30.2-30.2l0.1-0.1l0,0l39.8-39.8v12.6c0,2.9,1.2,5.7,3.2,7.7l19.4,19.4L186.6,259.3z M259.6,184.4
	c0.5,0.5,0.5,1.4,0,1.9l-31,31l-31.2-31.2l20.2-20.2c2-2,3.2-4.8,3.2-7.7v-12.6l8.6,8.6l2.6,2.6l3.5,3.5L259.6,184.4z M352,124.5
	c0,0.7-0.6,1.4-1.4,1.4h-42.1c-0.7,0-1.4-0.6-1.4-1.4V82.4c0-0.7,0.6-1.4,1.4-1.4h42.1c0.7,0,1.4,0.6,1.4,1.4V124.5L352,124.5z"/>
</svg>
