<?xml version="1.0" encoding="utf-8"?>
<!-- Generator: Adobe Illustrator 23.0.1, SVG Export Plug-In . SVG Version: 6.00 Build 0)  -->
<svg version="1.1" id="Layer_1" xmlns="http://www.w3.org/2000/svg" xmlns:xlink="http://www.w3.org/1999/xlink" x="0px" y="0px"
	 viewBox="0 0 815.79 221.79" style="enable-background:new 0 0 815.79 221.79;" xml:space="preserve">
<style type="text/css">
	.st0{fill:#C59A6B;}
</style>
<g>
	<path class="st0" d="M209.73,79.03V67.2c0.13-3.79,0.5-7.56,1.14-11.3l0.38-2.21l-2.22,0.38c-4.66,0.8-9.38,1.2-14.11,1.2l0,0
		h-13.35V41.93c0-4.72,0.4-9.43,1.19-14.08l0.38-2.23L180.94,26c-3.42,0.58-6.88,0.95-10.34,1.11h-9.98c-4.73,0-9.45-0.4-14.11-1.2
		l-2.22-0.38l0.38,2.21c0.8,4.66,1.2,9.39,1.2,14.12v6.21c0,4.72-0.4,9.44-1.2,14.09l-0.38,2.23l2.22-0.38
		c4.66-0.8,9.38-1.2,14.11-1.2h15.13l-10.84,4.35c-0.63,0.25-1.2,0.63-1.68,1.11l-1.18,1.18l-0.86-0.86l-0.92-0.93
		c-0.49-0.49-1.29-0.49-1.78,0l-1.49,1.49c-0.95,0.95-1.98,1.82-3.07,2.59l-0.52,0.37l0.52,0.37c0.98,0.7,1.9,1.48,2.77,2.31
		l-10.93,10.93l-9.78-9.79l0.16,0.03c-3.34-3.34-6.4-6.96-9.13-10.82l-1.3-1.83l-1.3,1.84c-2.73,3.86-5.78,7.47-9.12,10.82
		l-9.69,9.69l-5.45-5.45c-0.95-0.95-2.23-1.48-3.56-1.48h-5.82l1.28-1.28l2.38-2.38c0.95-0.95,1.98-1.82,3.07-2.59l0.52-0.37
		l-0.52-0.37c-1.1-0.77-2.12-1.64-3.07-2.59l-1.49-1.49c-0.49-0.49-1.29-0.49-1.78,0l-1.78,1.78l-6.64-6.64h8.07
		c4.73,0,9.45,0.4,14.11,1.2l2.21,0.38l-0.38-2.21c-0.8-4.66-1.2-9.39-1.2-14.12v-6.19c0-4.73,0.4-9.45,1.2-14.12l0.38-2.21
		l-2.21,0.38c-4.66,0.79-9.38,1.2-14.11,1.2h-9.98c-3.47-0.16-6.92-0.52-10.34-1.11l-2.21-0.38l0.38,2.21
		c0.8,4.66,1.2,9.38,1.2,14.11v13.32H56.5v0c-4.73,0-9.45-0.4-14.11-1.2l-2.21-0.38l0.38,2.21c0.64,3.75,1.01,7.53,1.14,11.33V79
		c-0.12,3.8-0.5,7.58-1.14,11.33l-0.38,2.21l2.21-0.38c4.66-0.8,9.38-1.2,14.11-1.2h9.98c3.47,0.16,6.92,0.52,10.34,1.11l2.21,0.38
		l-0.7-4.1c-0.64-3.78-0.74-7.62-0.87-11.45c-0.02-0.55-0.13-1.1-0.33-1.61l-4.67-12.07L84.05,74.8l-1.78,1.78
		c-0.49,0.49-0.49,1.29,0,1.78l1.5,1.5c0.95,0.95,1.81,1.97,2.58,3.06l0.37,0.52l0.37-0.52c0.7-0.98,1.48-1.9,2.32-2.77l10.86,10.86
		l-9.27,9.27c-3.35,3.35-6.97,6.4-10.83,9.14l-1.83,1.3l1.83,1.3c2.83,2.01,5.53,4.19,8.1,6.53l12.35,12.35l-7.61,7.61l-3.35,3.35
		l-28.95,28.95c0,0,0,0,0,0l-11.04,11.04c-0.49,0.49-0.49,1.29,0,1.78l0.06,0.06c1.41,1.41,2.69,2.93,3.84,4.55l0.55,0.77l0.55-0.77
		c1.15-1.62,2.44-3.15,3.84-4.56l2.05-2.06l10.31,10.32c1.14,1.14,2.18,2.37,3.11,3.68l0.44,0.62l0.44-0.62
		c0.93-1.31,1.96-2.53,3.09-3.66l0.03-0.03h0c0.49-0.49,0.49-1.29,0-1.78l-8-8h8.47l3.1-3.1v-8.47l8.01,8
		c0.49,0.49,1.29,0.49,1.78,0l0.03-0.03c1.13-1.13,2.36-2.17,3.66-3.09l0.62-0.44l-0.62-0.44c-1.31-0.93-2.54-1.96-3.67-3.1
		l-10.33-10.33h0l-2.67-2.67h5.34c8.37-8.37,16.83-16.83,16.83-16.83c0.94-0.94,1.47-2.22,1.47-3.56v-5.82l13.24,13.24
		c3.34,3.34,6.39,6.96,9.12,10.81l1.3,1.83l1.31-1.84c2.73-3.85,5.78-7.47,9.12-10.81l3.92-3.92c0.95-0.94,1.48-2.23,1.48-3.56
		l0-5.82l11.63,11.63l11.3,11.3l6.01,6.01l-10.31,10.31c-1.14,1.14-2.37,2.18-3.68,3.11l-0.62,0.44l0.62,0.44
		c1.31,0.93,2.53,1.96,3.66,3.09l0.03,0.03c0.49,0.49,1.29,0.49,1.78,0l8-8v8.47l3.1,3.1h8.47l-8.01,8c-0.49,0.49-0.49,1.29,0,1.78
		l0.03,0.03c1.13,1.13,2.17,2.36,3.09,3.66l0.44,0.62l0.44-0.62c0.93-1.31,1.97-2.55,3.11-3.69l10.32-10.31l2.67-2.67v5.37
		c1.17,1.23,2.25,2.53,3.23,3.91l0.54,0.77l0.55-0.77c1.15-1.62,2.44-3.15,3.84-4.55l0.06-0.06c0.49-0.49,0.49-1.29,0-1.78
		l-43.34-43.34l-7.68-7.68l9.62-9.62c3.34-3.34,6.96-6.4,10.82-9.13l1.83-1.3l-1.83-1.3c-3.86-2.73-7.48-5.78-10.82-9.13l-9.28-9.28
		l5.51-5.51c0.94-0.94,1.47-2.23,1.47-3.56v-5.82l3.66,3.66c0.95,0.95,1.82,1.98,2.6,3.07l0.37,0.52l0.37-0.52
		c0.78-1.1,1.64-2.12,2.59-3.07l1.49-1.49c0.49-0.49,0.49-1.29,0-1.78l-1.78-1.78l6.64-6.64v7.98c0,4.72-0.4,9.44-1.19,14.09
		l-0.38,2.23l2.21-0.38c3.42-0.58,6.81-0.95,10.28-1.11h9.98c4.73,0,9.45,0.4,14.11,1.2l2.22,0.38l-0.38-2.21
		C210.23,86.6,209.86,82.82,209.73,79.03 M174.03,54.63c0,0.35-0.28,0.63-0.63,0.63h-19.35c-0.35,0-0.63-0.28-0.63-0.63V35.29
		c0-0.35,0.28-0.63,0.63-0.63h19.35c0.35,0,0.63,0.28,0.63,0.63V54.63z M69.22,83.42H49.88c-0.35,0-0.63-0.28-0.63-0.63V63.45
		c0-0.35,0.28-0.63,0.63-0.63h19.35c0.35,0,0.63,0.28,0.63,0.63v19.35C69.85,83.14,69.57,83.42,69.22,83.42 M77.41,54.63V35.29
		c0-0.35,0.28-0.63,0.63-0.63h19.35c0.35,0,0.63,0.28,0.63,0.63v19.35c0,0.35-0.28,0.63-0.63,0.63H78.04
		C77.69,55.26,77.41,54.98,77.41,54.63 M66.32,175.86h-4.87l13.8-8.93v8.93H66.32L66.32,175.86z M176.18,175.86v-8.93v-4.87
		l8.93,13.8L176.18,175.86z M125.21,76.75c0.25-0.25,0.64-0.25,0.89,0l14.33,14.33l-14.71,14.71l-14.78-14.77L125.21,76.75z
		 M91.62,111.23c-0.25-0.25-0.25-0.64,0-0.89l8.56-8.56c0.94-0.95,1.48-2.23,1.48-3.56V92.4l18.72,18.72l-14.43,14.43L91.62,111.23z
		 M126.1,144.81c-0.25,0.25-0.64,0.25-0.89,0l-13.92-13.92l0.06-0.06l18.32-18.32v5.82c0,1.34,0.53,2.62,1.48,3.56l8.94,8.94
		L126.1,144.81z M159.69,110.34c0.25,0.25,0.25,0.64,0,0.89l-14.27,14.26l-14.36-14.37l9.28-9.28c0.94-0.94,1.47-2.23,1.47-3.56
		v-5.82l3.95,3.95l1.18,1.18l1.58,1.58L159.69,110.34z M202.18,82.79c0,0.35-0.28,0.63-0.63,0.63h-19.35
		c-0.35,0-0.63-0.28-0.63-0.63V63.45c0-0.35,0.28-0.63,0.63-0.63h19.35c0.35,0,0.63,0.28,0.63,0.63V82.79z"/>
	<g>
		<path class="st0" d="M290.66,98.54l15.35-34.57h12.92v1.42h-1.56c-2.07,0-3.42,0.16-4.07,0.51c-0.64,0.33-1.07,0.97-1.29,1.89
			c-0.22,0.93-0.33,3.12-0.33,6.6v20.49c0,3.28,0.08,5.44,0.25,6.45c0.17,1.02,0.58,1.77,1.26,2.26c0.67,0.5,1.96,0.74,3.86,0.74
			h1.87v1.42H298.8v-1.42h1.49c1.78,0,3.02-0.22,3.72-0.67c0.7-0.45,1.14-1.16,1.33-2.11c0.2-0.95,0.29-3.18,0.29-6.67v-26.6
			l-16.68,37.47h-1.46l-16.8-37.47v24.47c0,3.34,0.1,5.63,0.31,6.84c0.21,1.21,0.85,2.28,1.93,3.19c1.08,0.91,2.59,1.43,4.54,1.55
			v1.42h-15.07v-1.42c1.81-0.1,3.27-0.58,4.4-1.46c1.13-0.87,1.82-1.94,2.07-3.22c0.25-1.27,0.37-3.64,0.37-7.09V74.38
			c0-3.33-0.09-5.47-0.29-6.44c-0.2-0.97-0.61-1.63-1.24-2c-0.64-0.37-2.02-0.55-4.15-0.55h-1.15v-1.42h12.83L290.66,98.54z"/>
		<path class="st0" d="M372.11,90.34h-16l-1.09,2.65c-1.62,3.84-2.42,6.35-2.42,7.52c0,1.25,0.43,2.2,1.29,2.85
			c0.86,0.64,1.96,0.97,3.31,0.97v1.42h-12.52v-1.42c1.86-0.29,3.25-0.94,4.16-1.95c0.91-1.01,2.01-3.16,3.29-6.43
			c0.11-0.31,0.6-1.5,1.49-3.57l12.24-29h1.21l14.07,33.19l1.93,4.37c0.44,0.99,1.02,1.77,1.75,2.33c0.74,0.56,1.84,0.92,3.31,1.06
			v1.42h-16.56v-1.42c2.03,0,3.4-0.15,4.12-0.45c0.71-0.29,1.07-0.88,1.07-1.77c0-0.45-0.48-1.8-1.43-4.04L372.11,90.34z
			 M371.58,88.95l-7.46-17.81l-7.42,17.81H371.58z"/>
		<path class="st0" d="M452.55,106.7l-29.79-39.17v29c0,2.4,0.12,3.98,0.35,4.75c0.24,0.76,0.92,1.46,2.04,2.09
			c1.11,0.64,2.79,0.95,5.03,0.95v1.42h-15.72v-1.42c2.01-0.14,3.54-0.51,4.6-1.09c1.06-0.58,1.69-1.22,1.88-1.89
			c0.2-0.68,0.3-2.28,0.3-4.81V74.38c0-3.2-0.15-5.35-0.45-6.44c-0.3-1.09-0.78-1.79-1.43-2.1c-0.65-0.31-2.1-0.46-4.36-0.46v-1.41
			h12.43l24.94,32.69V71.66c0-1.85-0.19-3.14-0.57-3.88c-0.38-0.74-1.16-1.33-2.35-1.75c-1.18-0.44-2.6-0.65-4.25-0.65v-1.41h15.28
			v1.41c-1.78,0.14-3.18,0.49-4.21,1.02c-1.03,0.53-1.68,1.18-1.96,1.92c-0.28,0.75-0.42,2.02-0.42,3.81v34.57H452.55z"/>
		<path class="st0" d="M490.4,105.32V91.88h1.55c1.76,8.75,5.93,13.13,12.52,13.13c2.97,0,5.26-0.83,6.89-2.51
			c1.62-1.67,2.43-3.55,2.43-5.62c0-2.1-0.71-3.85-2.14-5.27c-1.43-1.4-4.04-2.9-7.83-4.5c-3.37-1.44-5.92-2.7-7.64-3.78
			c-1.72-1.08-3.06-2.48-4.02-4.21c-0.97-1.73-1.45-3.56-1.45-5.51c0-2.98,1.04-5.46,3.12-7.44c2.08-1.98,4.71-2.98,7.9-2.98
			c1.78,0,3.46,0.29,5.04,0.87c1.57,0.57,3.18,1.77,4.84,3.57c0.96-1.13,1.49-2.35,1.62-3.67h1.37V74.9h-1.37
			c-0.78-3.18-2.18-5.68-4.18-7.52c-2-1.83-4.31-2.74-6.94-2.74c-2.5,0-4.34,0.67-5.51,2.01c-1.17,1.35-1.76,2.82-1.76,4.42
			c0,1.93,0.74,3.57,2.2,4.9c1.45,1.35,4.07,2.88,7.86,4.56c3.62,1.6,6.26,2.89,7.9,3.86c1.64,0.98,2.96,2.33,3.96,4.05
			c1,1.73,1.5,3.72,1.5,5.98c0,3.58-1.2,6.49-3.6,8.72c-2.4,2.24-5.61,3.36-9.63,3.36c-4.61,0-8.47-1.76-11.55-5.27
			c-0.68,0.97-1.19,2.32-1.52,4.07H490.4z"/>
		<path class="st0" d="M548.48,65.38v-1.42h19.26v1.42h-0.9c-2.07,0-3.43,0.17-4.07,0.51c-0.64,0.34-1.07,0.97-1.29,1.89
			c-0.22,0.93-0.33,3.12-0.33,6.6v20.49c0,3.29,0.08,5.44,0.23,6.45c0.15,1.02,0.57,1.78,1.24,2.27c0.68,0.49,1.97,0.74,3.87,0.74
			h1.24v1.41h-19.26v-1.41h1.24c1.8,0,3.05-0.23,3.74-0.68c0.7-0.45,1.13-1.16,1.32-2.11c0.19-0.96,0.28-3.17,0.28-6.67V74.38
			c0-3.33-0.09-5.48-0.28-6.44c-0.19-0.96-0.6-1.63-1.24-2c-0.64-0.37-2.03-0.55-4.16-0.55H548.48z"/>
		<path class="st0" d="M598.26,84.58c0-6.45,2.17-11.63,6.53-15.53c4.35-3.9,9.77-5.86,16.28-5.86c6.56,0,12.05,1.93,16.44,5.79
			c4.41,3.86,6.6,9.13,6.6,15.81c0,6.47-2.11,11.71-6.32,15.72c-4.22,4.01-9.76,6.01-16.63,6.01c-6.69,0-12.18-2-16.47-6.01
			C600.41,96.5,598.26,91.19,598.26,84.58 M605.37,84.79c0,6.72,1.35,11.76,4.05,15.13c2.7,3.37,6.76,5.05,12.16,5.05
			c4.75,0,8.49-1.68,11.24-5.05c2.75-3.37,4.13-8.39,4.13-15.07c0-6.49-1.36-11.47-4.07-14.93c-2.72-3.46-6.65-5.19-11.81-5.19
			c-5.07,0-8.96,1.69-11.67,5.07C606.73,73.18,605.37,78.18,605.37,84.79"/>
		<path class="st0" d="M711.02,106.7l-29.79-39.17v29c0,2.4,0.11,3.98,0.35,4.75c0.24,0.76,0.92,1.46,2.04,2.09
			c1.12,0.64,2.79,0.95,5.03,0.95v1.42h-15.72v-1.42c2.01-0.14,3.54-0.51,4.6-1.09c1.05-0.58,1.68-1.22,1.88-1.89
			c0.2-0.68,0.3-2.28,0.3-4.81V74.38c0-3.2-0.15-5.35-0.45-6.44c-0.3-1.09-0.78-1.79-1.42-2.1c-0.66-0.31-2.11-0.46-4.37-0.46v-1.41
			h12.43l24.94,32.69V71.66c0-1.85-0.19-3.14-0.57-3.88c-0.38-0.74-1.16-1.33-2.35-1.75c-1.18-0.44-2.6-0.65-4.25-0.65v-1.41h15.28
			v1.41c-1.78,0.14-3.18,0.49-4.21,1.02c-1.02,0.53-1.67,1.18-1.95,1.92c-0.28,0.75-0.42,2.02-0.42,3.81v34.57H711.02z"/>
		<path class="st0" d="M747.74,105.32V91.88h1.56c1.76,8.75,5.93,13.13,12.51,13.13c2.97,0,5.26-0.83,6.89-2.51
			c1.62-1.67,2.44-3.55,2.44-5.62c0-2.1-0.71-3.85-2.14-5.27c-1.43-1.4-4.04-2.9-7.83-4.5c-3.38-1.44-5.92-2.7-7.64-3.78
			c-1.72-1.08-3.06-2.48-4.02-4.21c-0.96-1.73-1.45-3.56-1.45-5.51c0-2.98,1.04-5.46,3.12-7.44c2.08-1.98,4.71-2.98,7.91-2.98
			c1.78,0,3.45,0.29,5.03,0.87c1.58,0.57,3.19,1.77,4.85,3.57c0.95-1.13,1.49-2.35,1.62-3.67h1.37V74.9h-1.37
			c-0.78-3.18-2.18-5.68-4.18-7.52c-2-1.83-4.31-2.74-6.95-2.74c-2.5,0-4.35,0.67-5.51,2.01c-1.17,1.35-1.76,2.82-1.76,4.42
			c0,1.93,0.73,3.57,2.2,4.9c1.45,1.35,4.07,2.88,7.86,4.56c3.62,1.6,6.26,2.89,7.9,3.86c1.64,0.98,2.97,2.33,3.96,4.05
			c1,1.73,1.5,3.72,1.5,5.98c0,3.58-1.2,6.49-3.61,8.72c-2.41,2.24-5.61,3.36-9.63,3.36c-4.62,0-8.47-1.76-11.55-5.27
			c-0.68,0.97-1.19,2.32-1.52,4.07H747.74z"/>
		<path class="st0" d="M363.61,150.16h0.68v7.51h-0.68c-0.19-0.86-0.54-1.61-1.03-2.26c-1.9,2.13-4.33,3.19-7.28,3.19
			c-3.12,0-5.67-0.97-7.65-2.94c-1.98-1.96-2.98-4.55-2.98-7.77c0-2.11,0.46-4.1,1.37-5.97c0.92-1.87,2.19-3.25,3.83-4.16
			c1.63-0.91,3.42-1.36,5.38-1.36c1.61,0,3.07,0.33,4.39,0.99c1.31,0.65,2.29,1.38,2.94,2.18c0.45-0.9,0.73-1.82,0.82-2.78h0.7
			l0.19,8.12h-0.68c-0.47-2.88-1.45-4.9-2.92-6.02c-1.48-1.12-3.13-1.69-4.97-1.69c-2.27,0-4.06,0.92-5.39,2.73
			c-1.33,1.82-2,4.43-2,7.82c0,3.21,0.73,5.68,2.18,7.39c1.46,1.7,3.26,2.56,5.43,2.56c1.16,0,2.34-0.27,3.55-0.84
			c1.21-0.56,2.16-1.5,2.87-2.82C363.06,152.69,363.48,151.4,363.61,150.16"/>
		<path class="st0" d="M424.24,158.19h-5.8c-1.03-0.71-2.61-2.58-4.73-5.61c-0.68-0.97-1.38-1.9-2.12-2.79
			c-0.73-0.89-1.23-1.44-1.51-1.63c-0.27-0.2-0.7-0.29-1.29-0.29h-0.86v4.75c0,1.68,0.04,2.79,0.12,3.31
			c0.07,0.52,0.29,0.91,0.63,1.16c0.35,0.25,1,0.38,1.99,0.38h1.03v0.72h-10.33v-0.72h0.7c0.93,0,1.57-0.11,1.92-0.35
			c0.36-0.24,0.58-0.59,0.68-1.09c0.09-0.48,0.14-1.63,0.14-3.41v-10.5c0-1.71-0.05-2.81-0.14-3.3c-0.1-0.5-0.31-0.84-0.64-1.03
			c-0.32-0.19-1.04-0.28-2.13-0.28h-0.37v-0.73l3.09-0.16c2.06-0.09,3.69-0.14,4.9-0.14c2.06,0,3.73,0.19,5.03,0.57
			c1.29,0.39,2.33,1,3.13,1.87c0.79,0.86,1.19,1.89,1.19,3.09c0,1.4-0.52,2.6-1.56,3.58c-1.04,0.99-2.57,1.6-4.58,1.85
			c0.9,0.43,2.35,1.99,4.37,4.67c1.63,2.18,2.91,3.61,3.85,4.28c0.94,0.67,2.04,1.03,3.31,1.08V158.19z M407.93,147.14
			c0.79-0.02,1.62-0.05,2.47-0.09c0.85-0.04,1.59-0.16,2.21-0.35c0.62-0.19,1.13-0.46,1.52-0.83c0.39-0.36,0.69-0.83,0.92-1.43
			c0.22-0.58,0.33-1.31,0.33-2.17c0-1.51-0.38-2.71-1.14-3.62c-0.77-0.91-2.41-1.35-4.96-1.35c-0.39,0-0.84,0.02-1.35,0.06V147.14z"
			/>
		<path class="st0" d="M457.37,147.35c0-3.3,1.12-5.96,3.35-7.96c2.23-2,5.01-3,8.34-3c3.37,0,6.18,0.99,8.43,2.97
			c2.26,1.98,3.38,4.68,3.38,8.1c0,3.32-1.08,6-3.24,8.05c-2.16,2.05-5,3.08-8.52,3.08c-3.43,0-6.25-1.03-8.44-3.08
			C458.47,153.46,457.37,150.74,457.37,147.35 M461.02,147.46c0,3.44,0.69,6.03,2.08,7.75c1.38,1.73,3.46,2.59,6.23,2.59
			c2.43,0,4.35-0.86,5.76-2.59c1.41-1.72,2.12-4.3,2.12-7.72c0-3.33-0.7-5.87-2.09-7.65c-1.39-1.78-3.4-2.67-6.05-2.67
			c-2.6,0-4.59,0.87-5.97,2.6C461.71,141.51,461.02,144.07,461.02,147.46"/>
		<path class="st0" d="M528.86,150.3h-8.2l-0.56,1.36c-0.82,1.96-1.24,3.25-1.24,3.85c0,0.63,0.22,1.13,0.66,1.46
			c0.44,0.33,1,0.5,1.69,0.5v0.72h-6.41v-0.72c0.96-0.15,1.66-0.48,2.13-1c0.47-0.53,1.03-1.63,1.69-3.3
			c0.05-0.16,0.3-0.77,0.77-1.83l6.27-14.86h0.62l7.21,17.01l0.98,2.24c0.23,0.5,0.52,0.9,0.9,1.19c0.38,0.29,0.95,0.47,1.7,0.55
			v0.72h-8.49v-0.72c1.04,0,1.74-0.08,2.11-0.24c0.37-0.15,0.56-0.45,0.56-0.91c0-0.23-0.26-0.92-0.74-2.07L528.86,150.3z
			 M528.59,149.59l-3.82-9.13l-3.81,9.13H528.59z"/>
		<path class="st0" d="M570.11,141.93h-0.73l0.1-5.15h20.95l0.1,5.15h-0.68c-0.25-1.41-0.58-2.43-1-3.05
			c-0.43-0.63-0.88-1.01-1.37-1.15c-0.49-0.14-1.33-0.22-2.51-0.22h-3.47v15.11c0,1.67,0.05,2.77,0.12,3.3
			c0.07,0.53,0.29,0.92,0.64,1.17c0.35,0.26,1.01,0.38,1.97,0.38h1.05v0.73h-10.76v-0.73h1.11c0.93,0,1.57-0.11,1.93-0.35
			c0.35-0.23,0.58-0.59,0.68-1.08c0.1-0.49,0.15-1.63,0.15-3.42v-15.11h-3.2c-1.4,0-2.32,0.07-2.81,0.2
			c-0.48,0.13-0.93,0.53-1.34,1.19C570.66,139.56,570.32,140.57,570.11,141.93"/>
		<path class="st0" d="M626.23,137.51v-0.73h9.87v0.73h-0.46c-1.06,0-1.75,0.09-2.08,0.26c-0.33,0.17-0.55,0.49-0.66,0.96
			c-0.11,0.47-0.17,1.61-0.17,3.38v10.5c0,1.68,0.04,2.79,0.12,3.31c0.08,0.52,0.29,0.91,0.63,1.16c0.34,0.25,1.01,0.38,1.99,0.38
			h0.63v0.73h-9.87v-0.73h0.63c0.93,0,1.57-0.11,1.92-0.35c0.36-0.23,0.59-0.6,0.68-1.08c0.1-0.49,0.14-1.63,0.14-3.42v-10.5
			c0-1.71-0.05-2.81-0.14-3.3c-0.09-0.5-0.31-0.84-0.64-1.03c-0.32-0.19-1.03-0.28-2.13-0.28H626.23z"/>
		<path class="st0" d="M685.1,150.3h-8.2l-0.56,1.36c-0.82,1.96-1.24,3.25-1.24,3.85c0,0.63,0.22,1.13,0.66,1.46
			c0.45,0.33,1,0.5,1.69,0.5v0.72h-6.41v-0.72c0.95-0.15,1.66-0.48,2.13-1c0.47-0.53,1.03-1.63,1.69-3.3
			c0.05-0.16,0.3-0.77,0.77-1.83l6.27-14.86h0.62l7.21,17.01l0.98,2.24c0.23,0.5,0.52,0.9,0.9,1.19c0.38,0.29,0.95,0.47,1.7,0.55
			v0.72h-8.49v-0.72c1.04,0,1.74-0.08,2.11-0.24c0.37-0.15,0.56-0.45,0.56-0.91c0-0.23-0.25-0.92-0.74-2.07L685.1,150.3z
			 M684.83,149.59l-3.82-9.13l-3.81,9.13H684.83z"/>
	</g>
</g>
</svg>
