<svg id="Layer_1" data-name="Layer 1" xmlns="http://www.w3.org/2000/svg" viewBox="0 0 218.35 150"><defs><style>.cls-1{opacity:0.5;isolation:isolate;}</style></defs><path class="cls-1" d="M1.51,107.47c2.22,0,3.9.11,7.81.11A7.18,7.18,0,0,0,10,109.8c1.73,3.93,5.13,11.42,5.95,13,.07,0,.15,0,.18,0,.89-1.64,4.82-10,6.13-13a8.06,8.06,0,0,0,.66-2.19c3.5,0,5.13-.11,7.25-.11.16.08.11.82,0,1a10.58,10.58,0,0,0-2.17.4c-.92.31-1.07.85-1.07,1.79-.08,2.5.23,13.62.41,16.19.08,1.13.25,1.89,1.33,2.12a9.29,9.29,0,0,0,1.94.34,1.32,1.32,0,0,1-.08,1c-1.05,0-2.43-.11-5.59-.11-2,0-3.73.11-5,.11a1.6,1.6,0,0,1,0-1,6.92,6.92,0,0,0,1.89-.39c.67-.23.82-.84.82-1.78.08-2.71,0-11.5,0-14.69,0,0-.1,0-.15,0-1.48,3.27-6.61,14.4-7.71,17.67a3.53,3.53,0,0,1-1.3,0c-.85-3-4.32-10.85-7.18-17.9-.08,0-.1,0-.15.08-.26,2.68-.75,11.57-.75,14.25,0,1.45.31,2,1.31,2.35a15.26,15.26,0,0,0,2.22.41c.15.1.08.86-.08,1-1.15,0-2.45-.11-4.47-.11-1.61,0-3.19.11-4.31.11a1.47,1.47,0,0,1,0-1c.64-.08,1.15-.16,1.68-.26,1.08-.31,1.46-.74,1.71-2.63.39-2.76,1.15-12.51,1.33-15.63a1.72,1.72,0,0,0-1-1.79,14.53,14.53,0,0,0-2.53-.56,3.17,3.17,0,0,1,.21-1" transform="translate(0)"/><path class="cls-1" d="M60.12,129.26c-2.6-.38-2.83-.59-3.93-3.42-.69-1.81-2.12-6-3.42-9.76-1-2.78-1.84-5.34-2.3-6.64-.18-.64-.41-1.4-.51-1.89-.39,0-.82,0-1.56,0-.59,0-1.15,0-1.56,0a15.91,15.91,0,0,1-.56,2.1c-.89,2.6-4.29,11.9-6.26,16.62-1,2.43-1.48,2.68-4.06,3a1.6,1.6,0,0,0,0,1c1.07,0,2.3-.11,3.88-.11,1.94,0,3.45.11,4.5.11a1.76,1.76,0,0,0,.1-1A12.29,12.29,0,0,1,42.7,129c-1-.26-1.07-.79-1.07-1.3a37.84,37.84,0,0,1,1.81-5.62.48.48,0,0,1,.39-.33c.43,0,1.3,0,3,0h3.24l1.25,3.78a.09.09,0,0,0,0,.08c.3.94.66,2,.79,2.48a.65.65,0,0,1-.41.84,9.52,9.52,0,0,1-1.81.41,1.78,1.78,0,0,0,0,1c1.2,0,2.53-.11,5.21-.11,2.22,0,4,.11,4.9.11a2.6,2.6,0,0,0,0-1m-10.75-9.53c0,.08,0,.23-.1.23-.33,0-1.46,0-2.53,0-1.23,0-2,0-2.43,0-.07,0-.1-.08-.07-.23.56-1.71,1.78-5.47,2.5-7.51,0,0,.15,0,.18,0,.33,1,.84,2.43,1.3,3.88h0c.43,1.38.87,2.76,1.15,3.65" transform="translate(0)"/><path class="cls-1" d="M65.44,107.47c1.14,0,3.09.11,5,.11,1,0,1.81,0,2.19,0a9.26,9.26,0,0,0,1.33,2c3.12,4,9.6,12.16,11.88,14.89,0,0,0,0,.1,0,0-4.72.08-11.21-.15-13.51-.16-1.22-.44-1.73-1.56-2.09a20.72,20.72,0,0,0-2.28-.39,1.92,1.92,0,0,1,0-.92c1,0,2.68.11,4.75.11,1.61,0,3.4-.11,3.93-.11a1.32,1.32,0,0,1,0,.92,9.58,9.58,0,0,0-1.48.34c-1,.33-1.33.92-1.45,2.19-.23,3.25-.26,9.2-.31,14.33,0,1.69,0,3.81.08,5.06-.57,0-2.46,0-3.12,0-1.86-2.7-11.62-15.3-13.59-17.9a.11.11,0,0,0-.18,0c-.07,4,0,12.43.08,14.14.08,1.56.59,2.1,1.61,2.3a15.18,15.18,0,0,0,2.09.34,1.36,1.36,0,0,1,0,1c-1,0-2.68-.11-4.47-.11-2.12,0-3.58.11-4.47.11a1.78,1.78,0,0,1,0-1,10.35,10.35,0,0,0,2-.39c.79-.23,1.15-.74,1.3-2.17.18-1.86.33-8.63.38-15.4A2.46,2.46,0,0,0,67.84,109a6.31,6.31,0,0,0-2.46-.64,2.17,2.17,0,0,1,.06-.9" transform="translate(0)"/><path class="cls-1" d="M101.52,128.6a5.89,5.89,0,0,0,3.5,1,3.32,3.32,0,0,0,3.45-3.55c0-2.12-1.07-3.32-4.32-5.32-3.39-2.17-5.61-3.75-5.61-7.27,0-4.17,3.42-6.52,7.56-6.52a54.28,54.28,0,0,1,5.77.59,41.34,41.34,0,0,0-.64,5.24,1.18,1.18,0,0,1-1,0c-.31-2.27-.72-3.34-1.64-4a4.7,4.7,0,0,0-2.86-.79,3.42,3.42,0,0,0-3.57,3.44c0,1.74.87,2.86,2.35,3.94s2.71,1.84,4.21,2.76c2.38,1.53,3.81,3.19,3.81,5.79,0,3.91-3.09,6.8-8.48,6.8a12.69,12.69,0,0,1-5.44-1.15c-.39-.56-.92-4.4-1-5.62a1.25,1.25,0,0,1,1-.26c.74,2.61,1.61,4,2.93,4.91" transform="translate(0)"/><path class="cls-1" d="M120.6,107.47c1.15,0,2.84.11,5.14.11,2.86,0,4.24-.11,5-.11a1.69,1.69,0,0,1,0,.92,17.66,17.66,0,0,0-1.79.34c-.82.3-.89.74-1,2s0,4.42,0,7.64c0,4.62,0,7.33.08,8.66,0,.82.08,1.68,1.15,1.89a11.75,11.75,0,0,0,1.94.33,1.51,1.51,0,0,1-.08,1c-1.45,0-2.91-.1-5-.1-2.91,0-4,.1-5.39.1-.18-.1-.18-.82,0-1a16.62,16.62,0,0,0,1.69-.25c.92-.23,1.12-.59,1.22-1.89s.08-5.37.08-9.2c0-3.57,0-5.85-.1-7.56,0-.82-.23-1.38-.92-1.61a14.08,14.08,0,0,0-2-.38c-.15-.08-.1-.79,0-.9" transform="translate(0)"/><path class="cls-1" d="M142.52,127.42a12.77,12.77,0,0,1-3.12-8.63,10.88,10.88,0,0,1,2.61-7.51,12.22,12.22,0,0,1,9.62-4.34c7.64,0,11.65,5.31,11.65,11.57a12.62,12.62,0,0,1-2.22,7.56,12.69,12.69,0,0,1-18.54,1.35m13.28.69c1.89-1.79,2.6-5.13,2.6-8.38,0-3.8-1.07-7.91-3.65-10a6.17,6.17,0,0,0-4.14-1.48,5.77,5.77,0,0,0-3.09.92c-2.3,1.6-3.24,4.87-3.24,8.53s1.12,8.07,4,10.34a6.55,6.55,0,0,0,4.17,1.4,5,5,0,0,0,3.37-1.3" transform="translate(0)"/><path class="cls-1" d="M171.2,107.47c1.15,0,3.09.11,5,.11,1,0,1.81,0,2.2,0a9.07,9.07,0,0,0,1.32,2c3.12,4,9.61,12.16,11.88,14.89,0,0,0,0,.1,0,0-4.72.08-11.21-.15-13.51-.15-1.22-.44-1.73-1.56-2.09a20.49,20.49,0,0,0-2.27-.39,1.91,1.91,0,0,1,0-.92c1,0,2.69.11,4.75.11,1.61,0,3.4-.11,3.94-.11a1.45,1.45,0,0,1,0,.92,9.06,9.06,0,0,0-1.48.34c-1.05.33-1.33.92-1.46,2.19-.23,3.25-.26,9.2-.31,14.33,0,1.69,0,3.81.08,5.06-.56,0-2.45,0-3.12,0-1.86-2.7-11.62-15.3-13.58-17.9a.11.11,0,0,0-.18,0c-.08,4,0,12.43.07,14.14.08,1.56.59,2.1,1.61,2.3a15.36,15.36,0,0,0,2.1.34,1.42,1.42,0,0,1,0,1c-1,0-2.68-.11-4.47-.11-2.12,0-3.57.11-4.47.11a1.88,1.88,0,0,1,0-1,10.2,10.2,0,0,0,2-.39c.79-.23,1.15-.74,1.3-2.17.18-1.86.34-8.63.39-15.4A2.45,2.45,0,0,0,173.6,109a6.31,6.31,0,0,0-2.45-.64,2.82,2.82,0,0,1,0-.9" transform="translate(0)"/><path class="cls-1" d="M207.31,128.6a5.89,5.89,0,0,0,3.5,1,3.32,3.32,0,0,0,3.45-3.55c0-2.12-1.07-3.32-4.32-5.32-3.39-2.17-5.62-3.75-5.62-7.27,0-4.17,3.43-6.52,7.56-6.52a54.23,54.23,0,0,1,5.78.59,41.34,41.34,0,0,0-.64,5.24,1.18,1.18,0,0,1-1,0c-.31-2.27-.72-3.34-1.64-4a4.7,4.7,0,0,0-2.86-.79,3.42,3.42,0,0,0-3.57,3.44c0,1.74.84,2.86,2.35,3.94s2.7,1.84,4.21,2.76c2.38,1.53,3.81,3.19,3.81,5.79,0,3.91-3.09,6.8-8.48,6.8a12.69,12.69,0,0,1-5.44-1.15c-.39-.56-.92-4.4-1.05-5.62a1.22,1.22,0,0,1,1-.26c.74,2.61,1.58,4,2.93,4.91" transform="translate(0)"/><path class="cls-1" d="M156.08,29.7V23.14a47.09,47.09,0,0,1,.64-6.26l.2-1.22-1.22.2a47.8,47.8,0,0,1-7.85.66h-7.4V9.12a47.71,47.71,0,0,1,.66-7.82l.21-1.22-1.26.18a43.79,43.79,0,0,1-5.74.61h-5.54A47,47,0,0,1,120.93.2L119.71,0l.2,1.23a46.89,46.89,0,0,1,.67,7.84v3.44a47.28,47.28,0,0,1-.67,7.85l-.2,1.22,1.22-.2a46.82,46.82,0,0,1,7.85-.67h8.4l-6,2.43a2.86,2.86,0,0,0-.94.64l-.64.64-.49-.49-.51-.51a.69.69,0,0,0-1,0l-.82.82a12.12,12.12,0,0,1-1.71,1.43l-.31.2.31.21a11.72,11.72,0,0,1,1.53,1.27l-6.08,6.08L115.11,28l.1,0a45.71,45.71,0,0,1-5-6l-.72-1-.71,1a48.25,48.25,0,0,1-5.06,6l-5.39,5.39-3-3a2.81,2.81,0,0,0-2-.81H90.08l.72-.72,1.33-1.33a11.09,11.09,0,0,1,1.71-1.43l.3-.2-.3-.21a11.68,11.68,0,0,1-1.71-1.43l-.82-.81a.7.7,0,0,0-1,0l-1,1-3.68-3.68h4.47a47,47,0,0,1,7.84.67l1.22.2L99,20.41a48,48,0,0,1-.66-7.84V9.09A47.77,47.77,0,0,1,99,1.25L99.17,0,98,.23a47.77,47.77,0,0,1-7.84.66H84.56A52.69,52.69,0,0,1,78.82.28L77.59.08,77.8,1.3a47.77,47.77,0,0,1,.66,7.84h0v7.38H71.05a48,48,0,0,1-7.84-.66L62,15.66l.2,1.22a47.89,47.89,0,0,1,.64,6.29V29.7A47.89,47.89,0,0,1,62.19,36L62,37.21l1.22-.2a46.71,46.71,0,0,1,7.84-.67H76.6a55.91,55.91,0,0,1,5.74.62l1.23.2-.38-2.27a48.37,48.37,0,0,1-.49-6.36,3.88,3.88,0,0,0-.18-.9l-2.63-6.69,6.44,6.44-1,1a.69.69,0,0,0,0,1l.82.82a16.46,16.46,0,0,1,1.43,1.68l.2.31.21-.31a12.42,12.42,0,0,1,1.27-1.53l6,6-5.13,5.16a46.58,46.58,0,0,1-6,5.06l-1,.71,1,.72a46.48,46.48,0,0,1,4.49,3.62l6.85,6.85L91.28,62.7l-1.86,1.87L73.33,80.63h0L67.2,86.76a.7.7,0,0,0,0,1l0,0a21.23,21.23,0,0,1,2.15,2.53l.3.44.31-.44a18.44,18.44,0,0,1,2.15-2.53l1.15-1.15L79,92.35a14.67,14.67,0,0,1,1.73,2.05l.23.36.23-.36a15.87,15.87,0,0,1,1.71-2l0,0h0a.69.69,0,0,0,0-1l-4.44-4.45h4.7l1.73-1.71V80.5L89.37,85a.69.69,0,0,0,1,0h0l0,0a15.5,15.5,0,0,1,2-1.71l.35-.23-.35-.23a18.58,18.58,0,0,1-2-1.71l-5.72-5.7h0l-1.48-1.48h3l9.35-9.34a2.84,2.84,0,0,0,.82-2V59.33l7.35,7.36a44.52,44.52,0,0,1,5.06,6l.72,1,.71-1a46.83,46.83,0,0,1,5.06-6l2.17-2.17a2.84,2.84,0,0,0,.82-2V59.33l6.43,6.44L130.87,72l3.35,3.35-5.73,5.72a14.1,14.1,0,0,1-2,1.74l-.36.23.36.23a15.87,15.87,0,0,1,2,1.71l0,0a.68.68,0,0,0,1,0l4.44-4.44v4.7L135.65,87h4.7l-4.45,4.45a.69.69,0,0,0,0,1l0,0a16.1,16.1,0,0,1,1.71,2l.23.36.23-.36a13.61,13.61,0,0,1,1.73-2l5.73-5.72L147,85.23v3a20.62,20.62,0,0,1,1.79,2.17l.3.43.31-.43a18.48,18.48,0,0,1,2.14-2.53l0,0a.69.69,0,0,0,0-1l-24-24.09-4.26-4.26,5.33-5.34a46,46,0,0,1,6-5.06l1-.71-1-.72a47.54,47.54,0,0,1-6-5l-5.16-5.16,3.07-3.07a2.8,2.8,0,0,0,.82-2V28.17l2,2a10.9,10.9,0,0,1,1.43,1.71l.21.31.2-.31a14.56,14.56,0,0,1,1.43-1.71l.82-.82a.69.69,0,0,0,0-1l-1-1,3.68-3.68v4.39a48.36,48.36,0,0,1-.66,7.85l-.21,1.22,1.23-.2a43.5,43.5,0,0,1,5.72-.62h5.54a46.89,46.89,0,0,1,7.84.67l1.23.2-.2-1.22a50.53,50.53,0,0,1-.59-6.29M136.26,16.17a.36.36,0,0,1-.36.35H125.15a.36.36,0,0,1-.36-.35V5.44a.36.36,0,0,1,.36-.36H135.9a.37.37,0,0,1,.36.36V16.17Zm-58.18,16H67.33A.37.37,0,0,1,67,31.8V21.05a.36.36,0,0,1,.36-.36H78.08a.36.36,0,0,1,.36.36V31.8a.37.37,0,0,1-.36.36m4.54-16V5.44A.37.37,0,0,1,83,5.08H93.73a.37.37,0,0,1,.36.36V16.19a.36.36,0,0,1-.36.36H83a.4.4,0,0,1-.36-.38m-6.15,67.3H73.76l7.66-5v5Zm61,0V75.8l4.95,7.67Zm-28.3-55a.36.36,0,0,1,.49,0l8,8-8.17,8.17-8.2-8.19ZM90.52,47.58a.34.34,0,0,1,0-.48l4.75-4.75a2.81,2.81,0,0,0,.81-2V37.16l10.4,10.4-8,8Zm19.13,18.65a.38.38,0,0,1-.49,0l-7.71-7.72,0,0h0l10.17-10.17v3.22a2.78,2.78,0,0,0,.82,2l5,5ZM128.29,47.1a.34.34,0,0,1,0,.48l-7.92,7.92-8-8,5.16-5.16a2.8,2.8,0,0,0,.82-2V37.19l2.2,2.19.66.67.9.89Zm23.6-15.3a.36.36,0,0,1-.36.36H140.78a.37.37,0,0,1-.36-.36V21.05a.37.37,0,0,1,.36-.36h10.75a.36.36,0,0,1,.36.36V31.8Z" transform="translate(0)"/><path class="cls-1" d="M60.61,140.75A3.25,3.25,0,0,0,58,141.83a4.34,4.34,0,0,0-.92,2.93,4.46,4.46,0,0,0,1,3,3.28,3.28,0,0,0,2.61,1.12,3.37,3.37,0,0,0,3.17-2.09l1.12.56a4.35,4.35,0,0,1-1.74,2,4.83,4.83,0,0,1-2.6.69,5.12,5.12,0,0,1-2.63-.63,4,4,0,0,1-1.69-1.82,6.33,6.33,0,0,1-.59-2.78A5.26,5.26,0,0,1,57,141a4.7,4.7,0,0,1,3.6-1.36,5.14,5.14,0,0,1,2.68.64,3.7,3.7,0,0,1,1.58,1.87l-1.3.43a2.76,2.76,0,0,0-1.12-1.35,3.79,3.79,0,0,0-1.84-.44" transform="translate(0)"/><path class="cls-1" d="M81.14,149.87l-2.6-4.19H75.4v4.19H74V139.81h4.73a4,4,0,0,1,2.63.77,2.59,2.59,0,0,1,.92,2.12,2.84,2.84,0,0,1-.67,1.89,2.92,2.92,0,0,1-1.81,1l2.86,4.34-1.56,0Zm-.2-7.17a1.6,1.6,0,0,0-.59-1.33,2.76,2.76,0,0,0-1.71-.46H75.4v3.7h3.29a2.48,2.48,0,0,0,1.66-.51,1.76,1.76,0,0,0,.59-1.4" transform="translate(0)"/><path class="cls-1" d="M101.37,144.79a5.91,5.91,0,0,1-.61,2.76A4.12,4.12,0,0,1,99,149.36a5.12,5.12,0,0,1-2.66.64,5.29,5.29,0,0,1-2.68-.64A4.05,4.05,0,0,1,92,147.55a6.34,6.34,0,0,1-.59-2.79A5.2,5.2,0,0,1,92.71,141a4.81,4.81,0,0,1,3.68-1.35,5.44,5.44,0,0,1,2.66.61,4.21,4.21,0,0,1,1.73,1.79,6.1,6.1,0,0,1,.59,2.76m-1.38,0a4.19,4.19,0,0,0-.94-2.94,3.38,3.38,0,0,0-2.66-1.07,3.48,3.48,0,0,0-2.68,1.05,4.23,4.23,0,0,0-.95,3,4.47,4.47,0,0,0,.95,3,3.29,3.29,0,0,0,2.65,1.1,3.44,3.44,0,0,0,2.69-1.07,4.58,4.58,0,0,0,.94-3" transform="translate(0)"/><path class="cls-1" d="M117.72,149.87l-1.15-2.93H112l-1.15,2.93h-1.4l4.11-10.06h1.56l4,10.06Zm-3.45-9,0,.21q-.19.57-.54,1.53l-1.28,3.29h3.76l-1.3-3.32c-.13-.33-.26-.69-.41-1.12Z" transform="translate(0)"/><polygon class="cls-1" points="130.51 140.91 130.51 149.87 129.16 149.87 129.16 140.91 125.69 140.91 125.69 139.81 133.96 139.81 133.96 140.91 130.51 140.91"/><rect class="cls-1" x="142.95" y="139.81" width="1.35" height="10.06"/><path class="cls-1" d="M161.31,149.87l-1.14-2.93h-4.58l-1.15,2.93H153l4.11-10.06h1.56l4,10.06Zm-3.44-9-.08.21q-.19.57-.54,1.53L156,145.86h3.78l-1.31-3.32c-.12-.33-.25-.69-.4-1.12Z" transform="translate(0)"/></svg>